# xmcd CD database file
# Generated: Wed May 2 20:41:21 2001 by KSCD
# 
# Track frame offsets:
#       150
#       19411
#       36555
#       54929
#       67778
#       81593
#       98295
#       118183
#       137887
#       151790
#       171150
#       184258
#       202042
#       214924
#
# Disc length: 3181 seconds
#
# Revision: 3
# Processed by: cddbd v1.4b41PL1 Copyright (c) Steve Scherf et al.
# Submitted via: Kscd 1.2.7
#
DISCID=c60c6b0e
DTITLE=David John and the Comstock Cowboys - Calico
DYEAR=1900
DGENRE=
TTITLE0=On a Night Like This
TTITLE1=That's When I Miss Her Most of All
TTITLE2=What am I Doing in This Cow Town
TTITLE3=Calico
TTITLE4=Texas Rag
TTITLE5=Sun's Goin' Down on the Old Chisholm Trail
TTITLE6=Red River
TTITLE7=El Dorado
TTITLE8=Shotgun Wedding Song
TTITLE9=Take the Money and Run
TTITLE10=The Man from Yuma
TTITLE11=They'll Never Take the Cowboy Out of Me
TTITLE12=Sure Was a Hellava Town
TTITLE13=Where You Going Cowboy
EXTD=
EXTT0=
EXTT1=
EXTT2=
EXTT3=
EXTT4=
EXTT5=
EXTT6=
EXTT7=
EXTT8=
EXTT9=
EXTT10=
EXTT11=
EXTT12=
EXTT13=
PLAYORDER=
